<?xml version="1.0" standalone="no"?>
<!DOCTYPE svg PUBLIC "-//W3C//DTD SVG 20010904//EN"
 "http://www.w3.org/TR/2001/REC-SVG-20010904/DTD/svg10.dtd">
<svg version="1.0" xmlns="http://www.w3.org/2000/svg"
 width="280.000000pt" height="286.000000pt" viewBox="0 0 280.000000 286.000000"
 preserveAspectRatio="xMidYMid meet">

<g transform="translate(0.000000,286.000000) scale(0.100000,-0.100000)"
fill="#000000" stroke="none">
<path d="M1973 1880 c-185 -39 -283 -183 -283 -417 0 -206 60 -327 193 -393
109 -53 271 -51 397 6 102 47 100 42 100 241 l0 173 -167 -2 -168 -3 2 -60 c1
-33 2 -63 3 -67 0 -5 29 -8 65 -8 l65 0 0 -68 c0 -64 -2 -70 -25 -80 -43 -20
-143 -15 -180 8 -61 38 -91 142 -82 286 6 108 28 166 77 208 31 25 40 28 92
24 68 -5 102 -30 120 -90 l11 -38 94 0 c92 0 93 0 93 25 0 90 -92 208 -186
238 -63 20 -167 28 -221 17z"/>
<path d="M470 1455 l0 -415 100 0 100 0 0 165 0 165 160 0 160 0 0 80 0 80
-160 0 -160 0 0 95 0 95 180 0 180 0 0 75 0 75 -280 0 -280 0 0 -415z"/>
<path d="M1110 1455 l0 -415 275 0 276 0 -3 78 -3 77 -172 3 -173 2 0 335 0
335 -100 0 -100 0 0 -415z"/>
<path d="M794 858 c-11 -28 -6 -98 7 -98 8 0 14 55 9 89 -1 8 4 18 12 22 10 7
10 9 -3 9 -9 0 -20 -10 -25 -22z"/>
<path d="M930 820 c0 -33 4 -60 10 -60 6 0 10 27 10 60 0 33 -4 60 -10 60 -6
0 -10 -27 -10 -60z"/>
<path d="M970 820 c0 -33 4 -60 10 -60 6 0 10 27 10 60 0 33 -4 60 -10 60 -6
0 -10 -27 -10 -60z"/>
<path d="M1050 820 c0 -33 4 -60 10 -60 6 0 10 27 10 60 0 33 -4 60 -10 60 -6
0 -10 -27 -10 -60z"/>
<path d="M1399 848 c-3 -35 4 -74 15 -86 11 -11 12 5 7 91 -1 12 -21 8 -22 -5z"/>
<path d="M1107 839 c-10 -6 -17 -22 -17 -39 0 -34 26 -53 52 -39 11 6 18 21
18 39 0 34 -26 53 -53 39z m38 -39 c0 -29 -32 -41 -41 -16 -9 24 4 48 23 44
12 -2 18 -12 18 -28z"/>
<path d="M840 805 c0 -37 20 -56 51 -48 15 4 19 15 19 44 0 22 -3 39 -8 39 -4
0 -7 -15 -7 -32 0 -23 -5 -34 -17 -36 -15 -3 -18 4 -18 32 0 20 -4 36 -10 36
-5 0 -10 -16 -10 -35z"/>
<path d="M1187 833 c-25 -24 9 -87 41 -76 12 4 14 3 7 -5 -5 -5 -19 -12 -30
-14 -18 -5 -19 -6 -2 -13 29 -12 47 12 47 66 0 47 -1 49 -28 49 -16 0 -32 -3
-35 -7z m48 -33 c0 -28 -29 -40 -38 -15 -9 22 3 46 22 43 10 -2 16 -13 16 -28z"/>
<path d="M1278 800 c-2 -22 0 -40 4 -40 5 0 8 18 8 40 0 22 -2 40 -4 40 -2 0
-6 -18 -8 -40z"/>
<path d="M1317 833 c-13 -12 -7 -23 18 -35 34 -15 32 -32 -2 -24 -26 6 -27 5
-9 -8 14 -11 24 -12 37 -5 26 13 24 27 -6 41 -33 15 -32 32 1 24 17 -5 23 -3
19 4 -7 11 -48 14 -58 3z"/>
<path d="M1450 800 c0 -22 5 -40 10 -40 6 0 10 18 10 40 0 22 -4 40 -10 40 -5
0 -10 -18 -10 -40z"/>
<path d="M1497 834 c-4 -4 -7 -20 -7 -35 0 -36 29 -54 56 -34 18 13 17 14 -11
12 -24 -2 -31 2 -33 21 -4 27 22 40 45 21 14 -12 16 -12 11 1 -5 16 -49 26
-61 14z"/>
<path d="M1616 824 c-14 -37 10 -79 39 -68 8 4 15 1 15 -5 0 -6 -12 -11 -27
-11 -20 0 -24 -3 -16 -11 6 -6 20 -8 32 -4 18 5 21 14 21 61 0 53 -1 54 -29
54 -17 0 -31 -6 -35 -16z m52 -27 c3 -22 -1 -27 -17 -27 -17 0 -21 6 -21 31 0
24 4 30 18 27 10 -2 18 -14 20 -31z"/>
<path d="M1711 798 c2 -34 3 -37 6 -13 2 17 12 36 21 43 14 11 13 12 -6 12
-19 0 -22 -5 -21 -42z"/>
<path d="M1767 834 c-15 -15 -7 -63 12 -73 28 -15 54 8 49 44 -2 24 -9 31 -28
33 -14 2 -29 0 -33 -4z m48 -34 c0 -16 -6 -26 -18 -28 -19 -4 -32 20 -23 44 9
25 41 13 41 -16z"/>
<path d="M1850 805 c0 -37 20 -56 51 -48 15 4 19 15 19 44 0 22 -5 39 -11 39
-5 0 -9 -8 -8 -17 3 -37 -1 -53 -16 -53 -10 0 -15 11 -15 35 0 19 -4 35 -10
35 -5 0 -10 -16 -10 -35z"/>
<path d="M1940 780 c0 -38 4 -59 10 -55 6 3 10 13 10 22 0 9 3 13 6 10 4 -3
15 -2 26 4 14 8 18 19 16 42 -3 28 -7 32 -35 35 l-33 3 0 -61z m55 20 c0 -16
-6 -26 -17 -28 -14 -3 -18 3 -18 28 0 25 4 31 18 28 11 -2 17 -12 17 -28z"/>
</g>
</svg>
